<svg xmlns="http://www.w3.org/2000/svg" width="1em" height="1em" viewBox="0 0 128 128"><path fill="#f26e7e" d="M24.156 108.54c4.734-2.734 4.742-11.582.02-19.766c-4.727-8.18-12.395-12.598-17.13-9.867c-4.73 2.734-4.742 11.582-.015 19.766c4.723 8.183 12.39 12.602 17.125 9.867"/><path fill="#893390" d="M120.98 98.684c4.723-8.18 4.715-17.031-.02-19.762c-4.73-2.734-12.398 1.684-17.125 9.863c-4.722 8.184-4.714 17.031.02 19.766s12.402-1.683 17.125-9.867"/><path fill="#f26e7e" d="M56.418 127.19c4.734-2.734 4.742-11.582.016-19.766c-4.723-8.184-12.391-12.598-17.125-9.867c-4.735 2.734-4.743 11.582-.016 19.766c4.723 8.183 12.391 12.602 17.125 9.867"/><path fill="#893390" d="M88.727 117.3c4.723-8.184 4.715-17.031-.02-19.766c-4.734-2.73-12.398 1.687-17.125 9.867c-4.722 8.184-4.714 17.031.02 19.766c4.73 2.735 12.398-1.683 17.125-9.867"/><path fill="#f6bf29" d="M63.984 19.797c9.45 0 17.109-4.434 17.109-9.898c0-5.47-7.66-9.899-17.109-9.899S46.875 4.43 46.875 9.9c0 5.464 7.66 9.898 17.109 9.898"/><path fill="#f26e7e" d="M24.145 71.254c4.734-2.734 4.742-11.582.02-19.766c-4.727-8.18-12.395-12.598-17.125-9.867c-4.735 2.734-4.743 11.582-.02 19.766s12.391 12.602 17.125 9.867"/><path fill="#f6bf29" d="M31.73 38.398c9.45 0 17.109-4.434 17.109-9.898s-7.66-9.9-17.109-9.9s-17.109 4.435-17.109 9.9s7.66 9.898 17.109 9.898"/><path fill="#893390" d="M120.96 61.406c4.723-8.18 4.719-17.031-.016-19.762c-4.734-2.734-12.402 1.684-17.129 9.863c-4.722 8.184-4.714 17.035.02 19.766c4.734 2.735 12.402-1.683 17.125-9.867"/><path fill="#f6bf29" d="M96.281 38.398c9.45 0 17.109-4.434 17.109-9.898s-7.66-9.9-17.109-9.9s-17.109 4.435-17.109 9.9s7.66 9.898 17.109 9.898"/><path fill="#f26e7e" d="M56.406 89.906c4.734-2.734 4.742-11.582.02-19.766c-4.727-8.184-12.395-12.598-17.125-9.867c-4.735 2.734-4.743 11.582-.02 19.766s12.391 12.602 17.125 9.867"/><path fill="#893390" d="M88.707 80.027c4.727-8.18 4.715-17.031-.016-19.762c-4.734-2.734-12.402 1.684-17.129 9.863c-4.722 8.184-4.714 17.031.02 19.766s12.402-1.683 17.125-9.867"/><path fill="#f6bf29" d="M63.984 57.043c9.45 0 17.109-4.434 17.109-9.898c0-5.47-7.66-9.899-17.109-9.899s-17.109 4.43-17.109 9.899c0 5.464 7.66 9.898 17.109 9.898"/></svg>